<svg xmlns="http://www.w3.org/2000/svg" xmlns:xlink="http://www.w3.org/1999/xlink" width="32" height="32" preserveAspectRatio="xMidYMid meet" viewBox="0 0 32 32" style="-ms-transform: rotate(360deg); -webkit-transform: rotate(360deg); transform: rotate(360deg);"><path d="M14 16.59L11.41 14L10 15.41l4 4l8-8L20.59 10L14 16.59z" fill="#626262"/><path d="M16 30l-6.176-3.293A10.982 10.982 0 0 1 4 17V4a2.002 2.002 0 0 1 2-2h20a2.002 2.002 0 0 1 2 2v13a10.982 10.982 0 0 1-5.824 9.707zM6 4v13a8.985 8.985 0 0 0 4.766 7.942L16 27.733l5.234-2.79A8.985 8.985 0 0 0 26 17V4z" fill="#626262"/><rect x="0" y="0" width="32" height="32" fill="rgba(0, 0, 0, 0)" /></svg>